name C:\Users\r0593348\3dpredictsim\Results\Batchsim_tmt_linear_v2\Pog_s1_tmt_aCst_d05_k250_ig24_act.mot
datacolumns 128
datarows 4
range 0.00000000 0.04014312
endheader
time	pelvis_tilt	pelvis_list	pelvis_rotation	pelvis_tx	pelvis_ty	pelvis_tz	hip_flexion_l	hip_adduction_l	hip_rotation_l	hip_flexion_r	hip_adduction_r	hip_rotation_r	knee_angle_l	knee_angle_r	ankle_angle_l	ankle_angle_r	subtalar_angle_l	subtalar_angle_r	tmt_angle_l	tmt_angle_r	mtp_angle_l	mtp_angle_r	lumbar_extension	lumbar_bending	lumbar_rotation	arm_flex_l	arm_add_l	arm_rot_l	arm_flex_r	arm_add_r	arm_rot_r	elbow_flex_l	elbow_flex_r	pro_sup_l	pro_sup_r	glut_med1_l/activation	glut_med2_l/activation	glut_med3_l/activation	glut_min1_l/activation	glut_min2_l/activation	glut_min3_l/activation	semimem_l/activation	semiten_l/activation	bifemlh_l/activation	bifemsh_l/activation	sar_l/activation	add_long_l/activation	add_brev_l/activation	add_mag1_l/activation	add_mag2_l/activation	add_mag3_l/activation	tfl_l/activation	pect_l/activation	grac_l/activation	glut_max1_l/activation	glut_max2_l/activation	glut_max3_l/activation	iliacus_l/activation	psoas_l/activation	quad_fem_l/activation	gem_l/activation	peri_l/activation	rect_fem_l/activation	vas_med_l/activation	vas_int_l/activation	vas_lat_l/activation	med_gas_l/activation	lat_gas_l/activation	soleus_l/activation	tib_post_l/activation	flex_dig_l/activation	flex_hal_l/activation	tib_ant_l/activation	per_brev_l/activation	per_long_l/activation	per_tert_l/activation	ext_dig_l/activation	ext_hal_l/activation	ercspn_l/activation	intobl_l/activation	extobl_l/activation	glut_med1_r/activation	glut_med2_r/activation	glut_med3_r/activation	glut_min1_r/activation	glut_min2_r/activation	glut_min3_r/activation	semimem_r/activation	semiten_r/activation	bifemlh_r/activation	bifemsh_r/activation	sar_r/activation	add_long_r/activation	add_brev_r/activation	add_mag1_r/activation	add_mag2_r/activation	add_mag3_r/activation	tfl_r/activation	pect_r/activation	grac_r/activation	glut_max1_r/activation	glut_max2_r/activation	glut_max3_r/activation	iliacus_r/activation	psoas_r/activation	quad_fem_r/activation	gem_r/activation	peri_r/activation	rect_fem_r/activation	vas_med_r/activation	vas_int_r/activation	vas_lat_r/activation	med_gas_r/activation	lat_gas_r/activation	soleus_r/activation	tib_post_r/activation	flex_dig_r/activation	flex_hal_r/activation	tib_ant_r/activation	per_brev_r/activation	per_long_r/activation	per_tert_r/activation	ext_dig_r/activation	ext_hal_r/activation	ercspn_r/activation	intobl_r/activation	extobl_r/activation	
          0.00000000	          2.94595068	          3.18335046	          9.46941776	          0.00000000	          0.86217472	         -0.00137371	        -21.11003375	         -0.06150788	          1.12312409	         25.74020664	         -3.71264975	         -2.96926789	        -20.56164403	        -10.67796207	        -20.72145132	          7.86591491	          6.92089365	          4.54558169	          3.58222292	          0.10887043	         38.87020790	         -0.02665628	         -2.13179339	         -6.97121311	         -2.57070513	        -12.50795173	        -14.17990862	         16.78026433	          1.20581975	        -13.46533570	         12.53996086	         12.45442679	         19.41673799	         86.51662706	         86.51662706	          0.09695321	          0.05000544	          0.05000496	          0.09097515	          0.06114687	          0.05001761	          0.08994569	          0.07480718	          0.09145896	          0.07479483	          0.06114558	          0.27054600	          0.24651770	          0.12750275	          0.05021594	          0.05001731	          0.08108734	          0.13062819	          0.09671392	          0.05003890	          0.05003156	          0.05004324	          0.22545479	          0.48565790	          0.10552626	          0.05003078	          0.05009544	          0.30593112	          0.05131595	          0.06084665	          0.05000742	          0.05000704	          0.07002445	          0.07623059	          0.12002528	          0.11442583	          0.12904405	          0.06129373	          0.17586698	          0.12947089	          0.61502562	          0.59390627	          0.24434052	          0.05000058	          0.06429234	          0.11185878	          0.07519501	          0.06115601	          0.05013363	          0.06115372	          0.06115209	          0.05007128	          0.07274208	          0.07035045	          0.07181439	          0.06115385	          0.06114353	          0.09079586	          0.10568173	          0.17624044	          0.18381060	          0.15540130	          0.05000338	          0.05021589	          0.10306348	          0.05007118	          0.13359853	          0.20911458	          0.07573256	          0.07483394	          0.07565099	          0.15455571	          0.18007865	          0.05000300	          0.14105023	          0.17352269	          0.12153599	          0.06116299	          0.06649971	          0.06115107	          0.05000205	          0.05003664	          0.06121305	          0.56456054	          0.24787553	          0.16195237	          0.37475058	          0.57079436	          0.51721774	          0.05000036	          0.19137810	          0.11187076	
          0.01338104	          2.95952349	          3.43740138	          9.32964191	          0.02310812	          0.86055049	         -0.00102141	        -21.02446527	         -0.17498462	          0.88476081	         25.22487253	         -3.63853512	         -2.76793289	        -22.41476162	        -11.68158175	        -23.77518920	          6.67503200	          7.14691671	          4.29239463	          2.69026726	          0.16177586	         38.36749874	          0.00764730	         -1.85449090	         -6.75502069	         -2.66813155	        -12.31601229	        -14.30576315	         16.78499379	         -0.96363350	        -13.44972424	         12.99266576	         12.11930257	         19.66898396	         86.51662706	         86.51662706	          0.07927424	          0.06115128	          0.06115484	          0.07438686	          0.05000483	          0.06114817	          0.13497696	          0.06116689	          0.07478456	          0.06115643	          0.05000578	          0.29427794	          0.33981397	          0.23140105	          0.08306891	          0.06116766	          0.06630255	          0.10683268	          0.07907966	          0.06110580	          0.06114867	          0.06115962	          0.18434369	          0.43837785	          0.10186602	          0.06125049	          0.06115471	          0.25014504	          0.06696795	          0.13679886	          0.06386911	          0.06115056	          0.06116603	          0.13121703	          0.09813880	          0.09356148	          0.10551342	          0.17362943	          0.29817454	          0.16603681	          0.53481904	          0.68940277	          0.19978538	          0.06544208	          0.06115092	          0.09146192	          0.17593938	          0.05000766	          0.18102689	          0.05000349	          0.05000332	          0.05000620	          0.05947781	          0.05752254	          0.05871936	          0.05000281	          0.05000321	          0.07424292	          0.08641263	          0.14411562	          0.17234229	          0.16292535	          0.06114624	          0.05015453	          0.08427202	          0.11959777	          0.16995629	          0.20819810	          0.06192320	          0.06118849	          0.20236658	          0.12637414	          0.14724299	          0.06126568	          0.30952827	          0.33121038	          0.26460812	          0.05001001	          0.05437374	          0.05000024	          0.05000416	          0.06114846	          0.05006119	          0.62334775	          0.30049663	          0.19719214	          0.58024835	          0.54592627	          0.42290383	          0.05000017	          0.15648047	          0.09147117	
          0.02676208	          2.97839591	          3.65837765	          9.14923282	          0.04605108	          0.85846747	         -0.00067273	        -20.73597407	         -0.29375941	          0.68753599	         24.52825812	         -3.57326184	         -2.54048577	        -24.66356937	        -12.99127265	        -26.05886577	          5.72709083	          7.39035471	          4.04803840	          1.94326644	         -0.14020812	         35.60762640	         -0.19342087	         -1.60325198	         -6.48333142	         -2.74781496	        -12.06821280	        -14.40887932	         16.70805389	         -3.10118119	        -13.46318609	         13.53266420	         11.75983370	         19.85457562	         86.51662706	         86.51662706	          0.11228512	          0.05000165	          0.05000358	          0.13437170	          0.06125879	          0.05000544	          0.19093522	          0.05001362	          0.06114902	          0.05000552	          0.06115893	          0.24061726	          0.27784974	          0.18920600	          0.06792433	          0.05001566	          0.07484370	          0.08736047	          0.06466026	          0.05001334	          0.05000915	          0.05001194	          0.16753449	          0.41973045	          0.08329112	          0.05008268	          0.05000463	          0.20453453	          0.05475885	          0.11185676	          0.07479005	          0.05000175	          0.05001373	          0.11464229	          0.08024343	          0.07650244	          0.08627399	          0.15339104	          0.24381583	          0.13576570	          0.51714713	          0.83584107	          0.50557872	          0.09599523	          0.05000017	          0.07478395	          0.26233061	          0.29165024	          0.38992618	          0.24569150	          0.22466122	          0.28619312	          0.06140405	          0.07242929	          0.06505087	          0.07478733	          0.06116607	          0.06070596	          0.07065596	          0.11783703	          0.14091738	          0.16531450	          0.05000360	          0.05003551	          0.06891307	          0.15678419	          0.20323591	          0.20427742	          0.05063564	          0.05003204	          0.16546608	          0.10333505	          0.30579428	          0.05009408	          0.25308626	          0.27081468	          0.21635725	          0.05000048	          0.05000083	          0.05000020	          0.05000015	          0.05000320	          0.05000210	          0.72845624	          0.30189200	          0.16147764	          0.77815123	          0.71344843	          0.56328804	          0.05000299	          0.13935486	          0.07479145	
          0.04014312	          2.99937931	          3.83264016	          8.92145073	          0.06840716	          0.85642414	         -0.00025594	        -20.19874746	         -0.43201173	          0.53770591	         23.88880644	         -3.47624220	         -2.35725275	        -27.23691196	        -14.38210865	        -27.72921359	          4.84803382	          7.63813240	          3.79485116	          1.19248600	         -0.08209185	         30.79142123	         -0.20227832	         -1.40012071	         -6.15241706	         -2.80889297	        -11.67317928	        -14.46363123	         16.56494228	         -5.12573882	        -13.48200139	         14.19714552	         11.29920417	         19.92864487	         86.51662706	         86.51662706	          0.09181043	          0.06115442	          0.05000732	          0.10987033	          0.05009331	          0.05001965	          0.24895386	          0.05000081	          0.05000700	          0.05000038	          0.05000921	          0.23424241	          0.22719437	          0.17579577	          0.06919169	          0.09144538	          0.06119786	          0.07143697	          0.05287069	          0.05012282	          0.05039928	          0.07452859	          0.13698514	          0.37577160	          0.06810489	          0.05003138	          0.05000970	          0.16723784	          0.09107051	          0.09146109	          0.06115294	          0.07783190	          0.05000329	          0.10104821	          0.06561281	          0.06719119	          0.07054791	          0.16406061	          0.19935735	          0.11101049	          0.42284605	          0.91323783	          0.41338675	          0.13998785	          0.05000028	          0.06114721	          0.34179556	          0.44985218	          0.55283862	          0.36334142	          0.42485672	          0.42324303	          0.05020772	          0.05922741	          0.05318996	          0.06115112	          0.05001568	          0.05000157	          0.05777293	          0.09635073	          0.11522348	          0.15775611	          0.05000319	          0.05000965	          0.05636670	          0.30521083	          0.25993988	          0.20835893	          0.05000101	          0.05000101	          0.13529453	          0.08449577	          0.26484392	          0.05000062	          0.38964816	          0.42800636	          0.33275619	          0.05000021	          0.05000052	          0.05000007	          0.10535465	          0.05000808	          0.05000483	          0.85648283	          0.24684213	          0.13203228	          0.63625605	          0.60267309	          0.60743063	          0.06860348	          0.11394355	          0.06115330	
